<?xml version="1.0" standalone="no"?>
<!DOCTYPE svg PUBLIC "-//W3C//DTD SVG 20010904//EN"
 "http://www.w3.org/TR/2001/REC-SVG-20010904/DTD/svg10.dtd">
<svg version="1.0" xmlns="http://www.w3.org/2000/svg"
 width="16.000000pt" height="16.000000pt" viewBox="0 0 16.000000 16.000000"
 preserveAspectRatio="xMidYMid meet">
<metadata>
Created by potrace 1.11, written by Peter Selinger 2001-2013
</metadata>
<g transform="translate(0.000000,16.000000) scale(0.002286,-0.002286)"
fill="#000000" stroke="none">
<path d="M896 6100 c-2 -3 -2 -1173 -2 -2600 l1 -2595 2600 0 2600 0 0 540 0
540 -2057 3 -2058 2 0 490 0 490 2058 0 2059 0 0 540 c-1 376 -4 540 -11 541
-6 0 -932 1 -2058 1 l-2048 1 0 484 0 483 2058 0 2058 0 0 542 -1 542 -2598 1
c-1429 0 -2600 -2 -2601 -5z"/>
</g>
</svg>
